<svg version="1.2" baseProfile="tiny-ps" xmlns="http://www.w3.org/2000/svg" viewBox="0 0 289 23" width="200" height="16">
	<title>banner-logo-1-svg</title>
	<defs>
		<clipPath clipPathUnits="userSpaceOnUse" id="cp1">
			<path d="M0 0L288.27 0L288.27 22.76L0 22.76L0 0Z" />
		</clipPath>
	</defs>
	<style>
		tspan { white-space:pre }
		.shp0 { fill: #ffffff } 
	</style>
	<g id="Clip-Path: Clip-Path" clip-path="url(#cp1)">
		<g id="Clip-Path">
			<g id="Layer">
				<path id="Layer" fill-rule="evenodd" class="shp0" d="M118.52 15.97L118.52 15.42L118.52 14.69L118.52 7.21L118.52 5.51L118.52 3.97L139.62 3.97L139.62 0.03L119.7 0.03C119.2 0.03 118.73 0.03 118.3 0.03C117.93 0.05 117.55 0.1 117.18 0.17C116.86 0.24 116.55 0.34 116.25 0.46C115.77 0.7 115.37 1.09 115.13 1.58C115 1.9 114.89 2.22 114.8 2.55C114.69 2.94 114.61 3.34 114.59 3.74C114.59 4.17 114.51 4.67 114.51 5.21L114.51 14.69L114.51 15.12L114.51 15.54L114.51 15.97L114.51 17.42C114.51 17.96 114.59 18.45 114.59 18.89C114.61 19.29 114.69 19.7 114.8 20.08C114.89 20.41 115 20.74 115.13 21.05C115.37 21.53 115.76 21.93 116.25 22.17C116.55 22.29 116.86 22.39 117.18 22.46C117.55 22.53 117.92 22.58 118.3 22.6C118.73 22.6 119.21 22.6 119.7 22.6L131.55 22.6L131.94 22.6L134.44 22.6C134.94 22.6 135.41 22.6 135.84 22.6C136.21 22.58 136.59 22.53 136.96 22.46C137.28 22.39 137.59 22.29 137.89 22.17C138.37 21.93 138.77 21.54 139.01 21.05C139.14 20.73 139.25 20.41 139.34 20.08C139.45 19.69 139.53 19.29 139.55 18.89C139.55 18.46 139.63 17.96 139.63 17.42L139.63 15.12L139.63 9.34L135.63 9.34L135.63 9.35L127.04 9.35L127.04 13.27L135.63 13.27L135.63 15.42L135.63 17.12L135.63 18.66L131.95 18.66L131.56 18.66L118.53 18.66L118.53 17.12L118.53 15.97L118.52 15.97Z" />
				<path id="Layer" fill-rule="evenodd" class="shp0" d="M4 5.51L4 3.97L21.11 3.97L21.11 0.04L5.18 0.04C4.68 0.04 4.21 0.04 3.78 0.04C3.4 0.06 3.03 0.11 2.66 0.18C2.35 0.25 2.03 0.35 1.73 0.47C1.25 0.71 0.86 1.1 0.62 1.58C0.49 1.9 0.38 2.23 0.29 2.56C0.17 2.94 0.1 3.35 0.08 3.75C0.08 4.18 0 4.68 0 5.21L0 7.51L0 17.53C0 18.07 0.08 18.57 0.08 19C0.1 19.4 0.18 19.81 0.29 20.19C0.38 20.52 0.49 20.85 0.62 21.16C0.86 21.64 1.25 22.04 1.74 22.28C2.04 22.4 2.35 22.5 2.67 22.57C3.04 22.64 3.41 22.69 3.79 22.71C4.22 22.71 4.7 22.71 5.19 22.71L21.12 22.71L21.12 18.77L4 18.77L4 7.22L4 5.51Z" />
				<path id="Layer" fill-rule="evenodd" class="shp0" d="M80.3 5.22L80.3 22.73L76.32 22.73L76.32 13.39L59.27 13.39L59.27 22.73L55.29 22.73L55.29 5.22C55.29 4.68 55.37 4.18 55.37 3.75C55.39 3.35 55.47 2.95 55.58 2.56C55.67 2.23 55.78 1.91 55.91 1.59C56.15 1.1 56.55 0.71 57.03 0.47C57.33 0.35 57.64 0.25 57.96 0.18C58.33 0.11 58.71 0.06 59.08 0.04C59.51 0.04 74.61 0.04 75.11 0.04C75.6 0.04 76.08 0.04 76.51 0.04C76.89 0.06 77.26 0.11 77.63 0.18C77.95 0.25 78.26 0.35 78.56 0.47C79.05 0.71 79.44 1.11 79.68 1.59C79.81 1.9 79.92 2.23 80.01 2.56C80.12 2.94 80.2 3.35 80.22 3.75C80.22 4.18 80.3 4.68 80.3 5.22ZM59.28 9.42L76.33 9.42L76.33 4.04L59.28 4.04L59.28 9.42Z" />
				<path id="Layer" fill-rule="evenodd" class="shp0" d="M88.7 22.72L88.7 4.66L89.57 5.59L104.83 22.77C105.22 22.77 105.62 22.77 105.98 22.77C106.36 22.75 106.74 22.7 107.12 22.63C107.43 22.56 107.73 22.47 108.03 22.34C108.51 22.1 108.91 21.71 109.15 21.22C109.29 20.91 109.42 20.58 109.52 20.25C109.6 19.86 109.66 19.46 109.69 19.06C109.76 18.57 109.78 18.08 109.77 17.59L109.77 0L105.77 0L105.77 17.97L104.9 17.06L89.74 0.04C89.31 0.04 88.91 0.04 88.56 0.04C88.21 0.04 87.76 0.12 87.41 0.18C87.1 0.25 86.8 0.35 86.5 0.47C86.27 0.6 86.05 0.76 85.86 0.94C85.67 1.13 85.51 1.35 85.39 1.58C85.24 1.89 85.13 2.22 85.04 2.55C84.95 2.94 84.89 3.34 84.86 3.74C84.82 4.23 84.82 4.72 84.86 5.21L84.86 22.72L88.7 22.72Z" />
				<path id="Layer" fill-rule="evenodd" class="shp0" d="M237.38 22.72L237.38 4.66L238.25 5.59L253.51 22.77C253.9 22.77 254.3 22.77 254.66 22.77C255.04 22.75 255.42 22.7 255.8 22.63C256.11 22.56 256.41 22.47 256.71 22.34C257.19 22.1 257.59 21.71 257.83 21.22C257.97 20.91 258.1 20.58 258.2 20.25C258.28 19.86 258.34 19.46 258.37 19.06C258.44 18.57 258.46 18.08 258.45 17.59L258.45 0L254.45 0L254.45 17.97L253.58 17.06L238.42 0.04C237.99 0.04 237.59 0.04 237.24 0.04C236.89 0.04 236.44 0.12 236.09 0.18C235.78 0.25 235.48 0.35 235.18 0.47C234.95 0.6 234.73 0.76 234.54 0.94C234.35 1.13 234.19 1.35 234.07 1.58C233.92 1.89 233.81 2.22 233.72 2.55C233.63 2.94 233.57 3.34 233.54 3.74C233.5 4.23 233.5 4.72 233.54 5.21L233.54 22.72L237.38 22.72Z" />
				<path id="Layer" fill-rule="evenodd" class="shp0" d="M46.85 0.04L46.85 9.42L29.87 9.42L29.87 0.04L25.86 0.04L25.86 22.72L29.87 22.72L29.87 14.01L29.87 13.38L46.85 13.38L46.85 14.01L46.85 22.72L50.79 22.72L50.79 0.04L46.85 0.04Z" />
				<path id="Layer" fill-rule="evenodd" class="shp0" d="M148.52 13.27L159.12 13.27L159.12 9.35L148.52 9.35L148.52 7.22L148.52 5.52L148.52 3.94L163.45 3.94L167.72 0.04L149.7 0.04C149.2 0.04 148.73 0.04 148.3 0.04C147.93 0.06 147.55 0.11 147.18 0.18C146.86 0.25 146.55 0.35 146.25 0.47C145.77 0.71 145.37 1.1 145.13 1.59C145 1.91 144.89 2.23 144.8 2.56C144.69 2.95 144.61 3.35 144.59 3.75C144.59 4.18 144.51 4.68 144.51 5.22L144.51 7.52L144.51 17.54C144.51 18.08 144.59 18.58 144.59 19.01C144.61 19.41 144.69 19.82 144.8 20.2C144.89 20.53 145 20.86 145.13 21.17C145.37 21.65 145.76 22.05 146.25 22.29C146.55 22.41 146.86 22.51 147.18 22.58C147.55 22.65 147.92 22.7 148.3 22.72C148.73 22.72 149.21 22.72 149.7 22.72L167.64 22.72L167.64 18.78L148.52 18.78L148.52 13.27Z" />
				<path id="Layer" fill-rule="evenodd" class="shp0" d="M198.85 3.75C198.83 3.35 198.75 2.94 198.64 2.56C198.55 2.23 198.44 1.9 198.31 1.59C198.07 1.11 197.68 0.71 197.19 0.47C196.89 0.35 196.58 0.25 196.26 0.18C195.89 0.11 195.52 0.06 195.14 0.04C194.71 0.04 194.23 0.04 193.74 0.04L172.62 0.04L176.89 3.94L194.95 3.94L194.95 5.59L194.95 6.73L194.95 9.38L176.2 9.38L176.2 12.66L176.2 13.38L176.2 22.66L180.26 22.66L180.26 13.38L193.75 13.38C194.25 13.38 194.72 13.38 195.15 13.38C195.52 13.36 195.9 13.31 196.27 13.24C196.59 13.17 196.9 13.07 197.2 12.95C197.68 12.71 198.08 12.32 198.32 11.83C198.45 11.51 198.56 11.19 198.65 10.86C198.76 10.47 198.84 10.07 198.86 9.67C198.86 9.24 198.94 8.74 198.94 8.2L198.94 6.73L198.94 5.58L198.94 5.22C198.93 4.68 198.85 4.18 198.85 3.75Z" />
				<path id="Layer" fill-rule="evenodd" class="shp0" d="M228.75 5.22L228.75 17.54C228.75 18.08 228.67 18.58 228.67 19.01C228.65 19.41 228.57 19.81 228.46 20.2C228.37 20.53 228.26 20.85 228.13 21.17C227.89 21.66 227.49 22.05 227.01 22.29C226.71 22.41 226.4 22.51 226.08 22.58C225.71 22.65 225.33 22.7 224.96 22.72C224.53 22.72 209.37 22.72 208.87 22.72C208.38 22.72 207.9 22.72 207.47 22.72C207.09 22.7 206.72 22.65 206.35 22.58C206.03 22.51 205.72 22.41 205.42 22.29C204.93 22.05 204.54 21.65 204.3 21.17C204.17 20.86 204.06 20.53 203.97 20.2C203.86 19.82 203.78 19.41 203.76 19.01C203.76 18.58 203.68 18.08 203.68 17.54L203.68 5.22C203.68 4.68 203.76 4.18 203.76 3.75C203.78 3.35 203.86 2.95 203.97 2.56C204.06 2.23 204.17 1.91 204.3 1.59C204.54 1.1 204.94 0.71 205.42 0.47C205.72 0.35 206.03 0.25 206.35 0.18C206.72 0.11 207.1 0.06 207.47 0.04C207.9 0.04 223.06 0.04 223.56 0.04C224.05 0.04 224.53 0.04 224.96 0.04C225.34 0.06 225.71 0.11 226.08 0.18C226.4 0.25 226.71 0.35 227.01 0.47C227.5 0.71 227.89 1.11 228.13 1.59C228.26 1.9 228.37 2.23 228.46 2.56C228.57 2.94 228.65 3.35 228.67 3.75C228.67 4.18 228.74 4.68 228.75 5.22ZM224.74 3.97L207.68 3.97L207.68 18.78L224.74 18.78L224.74 3.97Z" />
				<path id="Layer" fill-rule="evenodd" class="shp0" d="M288.27 5.21C288.27 4.67 288.19 4.18 288.19 3.74C288.17 3.34 288.09 2.93 287.98 2.55C287.89 2.22 287.78 1.89 287.65 1.58C287.41 1.1 287.02 0.7 286.53 0.46C286.23 0.34 285.92 0.24 285.6 0.17C285.23 0.1 284.86 0.05 284.48 0.03C284.05 0.03 283.57 0.03 283.08 0.03L263.18 0.03L263.18 3.97L284.26 3.97L284.26 5.51L284.26 7.21L284.26 18.78L267.27 18.78L267.27 9.42L263.27 9.42L263.27 18.79L263.21 18.79L263.21 22.73L283.08 22.73C283.58 22.73 284.05 22.73 284.48 22.73C284.85 22.71 285.23 22.66 285.6 22.59C285.92 22.52 286.23 22.42 286.53 22.3C287.01 22.06 287.41 21.67 287.65 21.18C287.78 20.86 287.89 20.54 287.98 20.21C288.09 19.82 288.17 19.42 288.19 19.02C288.19 18.59 288.27 18.09 288.27 17.55L288.27 7.51L288.27 5.21Z" />
			</g>
		</g>
	</g>
</svg>