<?xml version="1.0" encoding="utf-8"?>
<!-- Generator: Adobe Illustrator 25.2.3, SVG Export Plug-In . SVG Version: 6.00 Build 0)  -->
<svg version="1.1" id="Layer_1" xmlns="http://www.w3.org/2000/svg" xmlns:xlink="http://www.w3.org/1999/xlink" x="0px" y="0px"
	 viewBox="0 0 16 16" style="enable-background:new 0 0 16 16;" xml:space="preserve">
<style type="text/css">
	.st0{fill:#00205B;}
	.st1{fill-rule:evenodd;clip-rule:evenodd;fill:#FFFFFF;}
	.st2{fill:#FFFFFF;}
	.st3{fill-rule:evenodd;clip-rule:evenodd;fill:#00205B;}
</style>
<rect class="st0" width="16" height="16"/>
<g>
	<path class="st1" d="M2.92,6.65V6.29h3.53L7.3,5.38H3.2c-0.12,0-0.22,0-0.32,0C2.79,5.39,2.7,5.4,2.61,5.42
		C2.54,5.43,2.47,5.45,2.4,5.48C2.29,5.54,2.2,5.63,2.14,5.74C2.11,5.81,2.09,5.89,2.07,5.96C2.04,6.05,2.02,6.15,2.02,6.24
		C2.02,6.34,2,6.45,2,6.58h0v0v0.53v2.31c0,0.12,0.02,0.24,0.02,0.34c0.01,0.09,0.02,0.19,0.05,0.28c0.02,0.08,0.05,0.15,0.08,0.22
		c0.06,0.11,0.15,0.2,0.26,0.26c0.07,0.03,0.14,0.05,0.21,0.07c0.08,0.02,0.17,0.03,0.26,0.03c0.1,0,0.21,0,0.32,0h4.13L6.34,9.71
		H2.92V7.04V6.65z"/>
	<path class="st2" d="M14,6.58c0-0.12-0.02-0.24-0.02-0.34c-0.01-0.09-0.02-0.19-0.05-0.28c-0.02-0.08-0.05-0.15-0.08-0.22
		c-0.06-0.11-0.15-0.2-0.26-0.26c-0.07-0.03-0.14-0.05-0.21-0.07c-0.08-0.02-0.17-0.03-0.26-0.03c-0.1,0-0.21,0-0.32,0H7.89
		l0.98,0.91h4.2v0.32v0.61v0.32h-1.45v0H9.99l0,0H9.96h0v0c-0.12,0-0.24,0.02-0.34,0.02C9.53,7.56,9.44,7.58,9.35,7.6
		C9.27,7.62,9.2,7.65,9.12,7.68c-0.11,0.06-0.2,0.15-0.26,0.26C8.84,8.01,8.81,8.08,8.8,8.15C8.78,8.24,8.77,8.32,8.77,8.41
		c0,0.01,0,0.02,0,0.04l-0.01,0v2.17l0.92-1V8.46h0.32l2.7-0.02h0.12c0.12,0,0.22,0,0.32,0c0.09-0.01,0.17-0.02,0.26-0.03
		c0.07-0.02,0.15-0.04,0.21-0.07c0.11-0.06,0.2-0.15,0.26-0.26c0.03-0.07,0.06-0.15,0.08-0.22c0.03-0.09,0.04-0.18,0.05-0.28
		c0-0.1,0.02-0.21,0.02-0.34h0v0V7.22V6.61L14,6.58L14,6.58L14,6.58z"/>
</g>
</svg>
