<svg id="SvgjsSvg1001" width="288" height="288" xmlns="http://www.w3.org/2000/svg" version="1.1" xmlns:xlink="http://www.w3.org/1999/xlink" xmlns:svgjs="http://svgjs.com/svgjs"><defs id="SvgjsDefs1002"></defs><g id="SvgjsG1008" transform="matrix(1,0,0,1,0,0)"><svg xmlns="http://www.w3.org/2000/svg" data-name="Layer 1" viewBox="0 0 45 45" width="288" height="288"><path fill="none" stroke="#1494ff" stroke-linecap="round" stroke-linejoin="round" stroke-width="1.95" d="M40,32.83a2.88,2.88,0,0,1-2.88,2.88H7.88A2.88,2.88,0,0,1,5,32.83V9.44A2.88,2.88,0,0,1,7.88,6.56H37.12A2.88,2.88,0,0,1,40,9.44V17" class="colorStroke00e0e5 svgStroke"></path><line x1="5" x2="40" y1="13.9" y2="13.9" fill="none" stroke="#1494ff" stroke-linecap="round" stroke-linejoin="round" stroke-width="1.95" class="colorStroke00e0e5 svgStroke"></line><path fill="none" stroke="#1494ff" stroke-linecap="round" stroke-linejoin="round" stroke-width="1.95" d="M36.7,25.42h-16a.61.61,0,0,1-.58-.63v-3a.61.61,0,0,1,.58-.63H39" class="colorStroke00e0e5 svgStroke"></path><rect width="16.78" height="4.99" x="14.03" y="35.98" fill="none" stroke="#1494ff" stroke-linecap="round" stroke-linejoin="round" stroke-width="1.95" rx="2.49" class="colorStroke00e0e5 svgStroke"></rect></svg></g></svg>