<svg version="1.2" baseProfile="tiny-ps" xmlns="http://www.w3.org/2000/svg" viewBox="0 0 507 40" width="206" height="16">
	<title>logo-svg</title>
	<style>
		tspan { white-space:pre }
		.shp0 { fill: #00205b } 
	</style>
	<path id="Layer" fill-rule="evenodd" class="shp0" d="M208.27 28.07L208.27 7L245.35 7L245.35 0.05L207.88 0.05C207.71 0.06 207.54 0.07 207.38 0.09C207.21 0.11 207.04 0.13 206.88 0.15C206.71 0.17 206.54 0.19 206.38 0.22C206.21 0.25 206.05 0.28 205.88 0.31C205.74 0.34 205.6 0.37 205.46 0.41C205.32 0.45 205.19 0.48 205.05 0.53C204.91 0.57 204.78 0.61 204.64 0.66C204.51 0.71 204.37 0.76 204.24 0.81C204.02 0.92 203.82 1.04 203.62 1.18C203.43 1.32 203.24 1.47 203.07 1.64C202.9 1.81 202.75 2 202.61 2.19C202.47 2.39 202.35 2.59 202.24 2.81C202.18 2.95 202.13 3.09 202.08 3.23C202.02 3.37 201.97 3.51 201.92 3.66C201.88 3.8 201.83 3.94 201.79 4.09C201.74 4.23 201.7 4.37 201.66 4.52C201.61 4.69 201.57 4.86 201.53 5.04C201.49 5.21 201.45 5.38 201.42 5.56C201.39 5.74 201.36 5.91 201.34 6.09C201.32 6.26 201.31 6.44 201.3 6.62C201.3 7.38 201.16 8.25 201.16 9.19L201.16 9.19L201.16 30.62L201.16 30.62C201.16 31.56 201.3 32.43 201.3 33.19C201.31 33.37 201.32 33.55 201.34 33.72C201.36 33.9 201.39 34.07 201.42 34.25C201.45 34.43 201.49 34.6 201.53 34.77C201.57 34.95 201.61 35.12 201.66 35.29C201.7 35.43 201.74 35.58 201.78 35.72C201.83 35.86 201.87 36.01 201.92 36.15C201.97 36.29 202.02 36.43 202.07 36.57C202.13 36.71 202.18 36.85 202.24 36.99C202.34 37.21 202.47 37.41 202.61 37.61C202.74 37.81 202.9 37.99 203.07 38.16C203.24 38.33 203.42 38.49 203.62 38.62C203.82 38.76 204.02 38.89 204.24 38.99C204.37 39.04 204.51 39.1 204.64 39.15C204.78 39.19 204.91 39.24 205.05 39.28C205.19 39.32 205.32 39.36 205.46 39.4C205.6 39.44 205.74 39.47 205.88 39.5C206.05 39.53 206.21 39.56 206.38 39.59C206.54 39.62 206.71 39.64 206.88 39.66C207.04 39.68 207.21 39.7 207.38 39.72C207.54 39.74 207.71 39.75 207.88 39.76L238.71 39.76C238.88 39.75 239.05 39.74 239.21 39.72C239.38 39.7 239.55 39.68 239.71 39.66C239.88 39.64 240.05 39.62 240.21 39.59C240.38 39.56 240.54 39.53 240.71 39.5C240.85 39.47 240.99 39.44 241.13 39.4C241.27 39.36 241.4 39.32 241.54 39.28C241.68 39.24 241.81 39.19 241.95 39.15C242.08 39.1 242.22 39.04 242.35 38.99C242.57 38.89 242.77 38.76 242.97 38.62C243.17 38.49 243.35 38.33 243.52 38.16C243.69 37.99 243.85 37.81 243.98 37.61C244.12 37.41 244.25 37.21 244.35 36.99C244.41 36.85 244.46 36.71 244.52 36.57C244.57 36.43 244.62 36.29 244.67 36.15C244.72 36.01 244.76 35.86 244.81 35.72C244.85 35.58 244.89 35.43 244.93 35.29C244.98 35.12 245.02 34.95 245.06 34.77C245.1 34.6 245.14 34.43 245.17 34.25C245.2 34.07 245.23 33.9 245.25 33.72C245.27 33.54 245.29 33.37 245.3 33.19C245.3 32.43 245.43 31.56 245.43 30.62L245.43 30.62L245.43 16.41L238.43 16.41L238.43 16.41L223.23 16.41L223.23 23.3L238.32 23.3L238.32 32.79L208.32 32.79L208.32 28.07L208.27 28.07Z" />
	<path id="Layer" fill-rule="evenodd" class="shp0" d="M7 9.69L7 7L37.11 7L37.11 0.06L6.64 0.06C6.47 0.07 6.3 0.09 6.14 0.1C5.97 0.12 5.8 0.14 5.64 0.16C5.47 0.18 5.3 0.2 5.14 0.23C4.97 0.26 4.81 0.29 4.64 0.32C4.5 0.35 4.36 0.38 4.22 0.42C4.08 0.46 3.95 0.5 3.81 0.54C3.67 0.58 3.54 0.63 3.4 0.67C3.27 0.72 3.13 0.78 3 0.83C2.78 0.93 2.57 1.06 2.38 1.19C2.18 1.33 2 1.49 1.83 1.66C1.66 1.83 1.5 2.01 1.36 2.21C1.23 2.4 1.1 2.61 1 2.83C0.94 2.97 0.89 3.11 0.83 3.25C0.78 3.39 0.73 3.53 0.68 3.67C0.64 3.81 0.59 3.95 0.55 4.1C0.51 4.24 0.47 4.39 0.43 4.53C0.38 4.7 0.33 4.87 0.29 5.05C0.25 5.22 0.22 5.39 0.18 5.57C0.15 5.74 0.13 5.92 0.11 6.1C0.09 6.27 0.07 6.45 0.06 6.63C0.14 7.35 0 8.22 0 9.16L0 9.16L0 30.83C0 31.77 0.14 32.65 0.14 33.41C0.15 33.59 0.17 33.77 0.19 33.94C0.21 34.12 0.23 34.3 0.27 34.47C0.3 34.65 0.33 34.82 0.37 34.99C0.41 35.17 0.46 35.34 0.51 35.51C0.55 35.65 0.59 35.8 0.63 35.94C0.67 36.09 0.72 36.23 0.76 36.37C0.81 36.51 0.86 36.65 0.91 36.79C0.97 36.93 1.02 37.07 1.08 37.21C1.19 37.43 1.31 37.63 1.45 37.83C1.59 38.02 1.74 38.21 1.91 38.38C2.08 38.55 2.27 38.7 2.46 38.84C2.66 38.98 2.86 39.1 3.08 39.21C3.21 39.26 3.35 39.32 3.48 39.37C3.62 39.41 3.75 39.46 3.89 39.5C4.03 39.54 4.16 39.58 4.3 39.62C4.44 39.66 4.58 39.69 4.72 39.72C4.88 39.75 5.05 39.78 5.22 39.81C5.38 39.84 5.55 39.86 5.72 39.88C5.88 39.9 6.05 39.92 6.22 39.93C6.38 39.95 6.55 39.96 6.72 39.97L37.11 39.97L37.11 33L7 33L7 9.69Z" />
	<path id="Layer" fill-rule="evenodd" class="shp0" d="M141.1 9.17L141.1 39.93L134.1 39.93L134.1 23.51L104.1 23.51L104.1 39.93L97.1 39.93L97.1 9.17C97.1 8.23 97.24 7.35 97.24 6.59C97.25 6.41 97.27 6.23 97.29 6.06C97.31 5.88 97.33 5.7 97.36 5.53C97.4 5.35 97.43 5.18 97.47 5.01C97.51 4.83 97.56 4.66 97.61 4.49C97.65 4.35 97.69 4.2 97.73 4.06C97.78 3.91 97.82 3.77 97.87 3.63C97.92 3.49 97.97 3.35 98.02 3.21C98.08 3.07 98.13 2.93 98.19 2.79C98.29 2.57 98.42 2.36 98.55 2.17C98.69 1.97 98.85 1.79 99.02 1.62C99.19 1.45 99.37 1.29 99.57 1.15C99.76 1.02 99.97 0.89 100.19 0.79C100.32 0.74 100.45 0.68 100.59 0.63C100.72 0.59 100.86 0.54 100.99 0.5C101.13 0.46 101.27 0.42 101.4 0.38C101.54 0.34 101.68 0.31 101.82 0.28C101.99 0.25 102.15 0.22 102.32 0.19C102.48 0.17 102.65 0.14 102.82 0.12C102.98 0.1 103.15 0.08 103.32 0.06C103.48 0.05 103.65 0.03 103.82 0.02L134.42 0.02C134.59 0.03 134.76 0.05 134.92 0.06C135.09 0.08 135.26 0.1 135.42 0.12C135.59 0.14 135.76 0.17 135.92 0.19C136.09 0.22 136.25 0.25 136.42 0.28C136.56 0.31 136.7 0.34 136.84 0.38C136.97 0.42 137.11 0.46 137.25 0.5C137.38 0.54 137.52 0.59 137.65 0.64C137.79 0.68 137.92 0.74 138.05 0.79C138.27 0.89 138.48 1.02 138.67 1.15C138.87 1.29 139.05 1.45 139.22 1.62C139.39 1.79 139.55 1.97 139.69 2.17C139.82 2.36 139.95 2.57 140.05 2.79C140.11 2.93 140.16 3.07 140.22 3.21C140.27 3.35 140.32 3.49 140.37 3.63C140.42 3.77 140.46 3.92 140.51 4.06C140.55 4.2 140.59 4.35 140.63 4.49C140.68 4.66 140.72 4.83 140.76 5.01C140.8 5.18 140.84 5.35 140.87 5.53C140.9 5.71 140.93 5.88 140.95 6.06C140.97 6.24 140.99 6.41 141 6.59C141 7.35 141.12 8.23 141.1 9.17ZM104.19 16.55L134.19 16.55L134.19 7.1L104.19 7.1L104.19 16.55Z" />
	<path id="Layer" fill-rule="evenodd" class="shp0" d="M155.87 39.93L155.87 8.18L157.4 9.82L184.21 40L186.21 40C186.38 39.99 186.55 39.98 186.71 39.96C186.88 39.94 187.05 39.93 187.21 39.9C187.38 39.88 187.55 39.86 187.71 39.83C187.88 39.81 188.04 39.78 188.21 39.75C188.35 39.72 188.48 39.69 188.62 39.65C188.75 39.61 188.88 39.57 189.02 39.53C189.15 39.49 189.28 39.44 189.41 39.4C189.54 39.35 189.67 39.29 189.8 39.24C190.02 39.13 190.22 39.01 190.42 38.87C190.61 38.73 190.8 38.58 190.97 38.41C191.14 38.24 191.29 38.05 191.43 37.86C191.57 37.66 191.69 37.46 191.8 37.24C191.86 37.1 191.92 36.96 191.98 36.82C192.04 36.68 192.1 36.54 192.15 36.4C192.2 36.25 192.26 36.11 192.3 35.97C192.35 35.82 192.4 35.68 192.44 35.53C192.48 35.36 192.51 35.18 192.54 35.01C192.57 34.84 192.6 34.66 192.63 34.49C192.65 34.31 192.67 34.13 192.69 33.96C192.71 33.78 192.73 33.61 192.74 33.43C192.77 33.22 192.8 33 192.82 32.79C192.84 32.57 192.85 32.36 192.87 32.14C192.88 31.93 192.89 31.71 192.89 31.5C192.89 31.28 192.89 31.07 192.88 30.85L192.88 30.85L192.88 0L185.88 0L185.88 31.58L184.33 30L157.69 0.06L155.62 0.06C155.45 0.07 155.28 0.08 155.12 0.09C154.95 0.11 154.78 0.13 154.61 0.15C154.45 0.17 154.28 0.19 154.12 0.22C153.95 0.25 153.78 0.28 153.62 0.32C153.48 0.35 153.34 0.39 153.21 0.42C153.07 0.46 152.94 0.5 152.8 0.54C152.67 0.59 152.53 0.63 152.4 0.68C152.26 0.73 152.13 0.78 152 0.83C151.9 0.89 151.8 0.94 151.7 1.01C151.6 1.07 151.5 1.14 151.41 1.21C151.31 1.28 151.22 1.35 151.13 1.42C151.04 1.5 150.95 1.58 150.87 1.66C150.78 1.74 150.7 1.83 150.62 1.92C150.54 2.01 150.46 2.1 150.39 2.19C150.32 2.29 150.25 2.38 150.18 2.48C150.12 2.58 150.06 2.69 150 2.79C149.94 2.93 149.87 3.06 149.82 3.2C149.76 3.34 149.7 3.48 149.65 3.63C149.6 3.77 149.55 3.91 149.51 4.06C149.46 4.2 149.42 4.34 149.38 4.49C149.34 4.66 149.31 4.84 149.27 5.01C149.24 5.19 149.21 5.36 149.18 5.54C149.16 5.71 149.13 5.89 149.11 6.06C149.09 6.24 149.07 6.41 149.05 6.59C149.04 6.8 149.02 7.02 149.02 7.23C149.01 7.45 149 7.66 149 7.88C149 8.1 149.01 8.31 149.02 8.53C149.02 8.74 149.04 8.96 149.05 9.17L149.05 9.17L149.05 39.93L155.87 39.93Z" />
	<path id="Layer" fill-rule="evenodd" class="shp0" d="M417.15 39.93L417.15 8.18L418.67 9.82L445.49 40L447.49 40C447.66 39.99 447.83 39.98 447.99 39.96C448.16 39.94 448.33 39.93 448.49 39.91C448.66 39.88 448.83 39.86 448.99 39.83C449.16 39.81 449.32 39.78 449.49 39.75C449.63 39.72 449.76 39.69 449.9 39.65C450.03 39.62 450.16 39.58 450.3 39.53C450.43 39.49 450.56 39.45 450.69 39.4C450.82 39.35 450.95 39.3 451.08 39.24C451.3 39.14 451.5 39.01 451.7 38.87C451.9 38.74 452.08 38.58 452.25 38.41C452.42 38.24 452.58 38.06 452.71 37.86C452.85 37.66 452.98 37.46 453.08 37.24C453.14 37.1 453.21 36.96 453.27 36.82C453.33 36.68 453.38 36.54 453.44 36.4C453.49 36.25 453.54 36.11 453.59 35.97C453.64 35.82 453.69 35.68 453.73 35.53C453.77 35.36 453.8 35.18 453.83 35.01C453.86 34.83 453.89 34.66 453.91 34.48C453.94 34.31 453.96 34.13 453.98 33.96C454 33.78 454.02 33.61 454.03 33.43C454.06 33.22 454.09 33 454.11 32.79C454.13 32.57 454.14 32.36 454.16 32.14C454.17 31.93 454.18 31.71 454.18 31.5C454.18 31.28 454.18 31.07 454.17 30.85L454.17 30.85L454.17 0L447.17 0L447.17 31.58L445.6 30L419 0.06L416.9 0.06C416.73 0.07 416.56 0.08 416.4 0.09C416.23 0.11 416.06 0.12 415.89 0.15C415.73 0.17 415.56 0.19 415.4 0.22C415.23 0.25 415.06 0.28 414.9 0.32C414.76 0.35 414.63 0.39 414.5 0.42C414.36 0.46 414.23 0.5 414.09 0.54C413.96 0.59 413.83 0.63 413.7 0.68C413.57 0.73 413.44 0.78 413.31 0.83C413.21 0.88 413.1 0.94 413 1C412.91 1.07 412.81 1.13 412.71 1.2C412.62 1.27 412.53 1.34 412.44 1.42C412.35 1.5 412.26 1.58 412.18 1.66C412.1 1.74 412.02 1.83 411.94 1.92C411.86 2.01 411.79 2.1 411.72 2.19C411.65 2.29 411.58 2.38 411.52 2.48C411.46 2.58 411.4 2.69 411.35 2.79C411.29 2.93 411.22 3.06 411.16 3.2C411.11 3.34 411.05 3.48 411 3.63C410.94 3.77 410.9 3.91 410.85 4.05C410.8 4.2 410.76 4.34 410.72 4.49C410.68 4.66 410.65 4.84 410.62 5.01C410.59 5.19 410.56 5.36 410.53 5.54C410.5 5.71 410.48 5.89 410.46 6.06C410.44 6.24 410.42 6.41 410.4 6.59C410.39 6.8 410.37 7.02 410.37 7.23C410.36 7.45 410.35 7.66 410.35 7.88C410.35 8.1 410.36 8.31 410.37 8.53C410.37 8.74 410.39 8.96 410.4 9.17L410.4 9.17L410.4 39.93L417.15 39.93Z" />
	<path id="Layer" class="shp0" d="M82.33 0.06L82.33 16.55L52.48 16.55L52.48 0.06L45.45 0.06L45.45 39.93L52.48 39.93L52.48 24.62L52.48 23.51L82.33 23.51L82.33 24.62L82.33 39.93L89.25 39.93L89.25 0.06L82.33 0.06L82.33 0.06Z" />
	<path id="Layer" fill-rule="evenodd" class="shp0" d="M261 23.32L279.64 23.32L279.64 16.43L261 16.43L261 6.92L287.23 6.92L294.73 0.06L260.6 0.06C260.43 0.07 260.26 0.09 260.1 0.1C259.93 0.12 259.76 0.14 259.6 0.16C259.43 0.18 259.26 0.2 259.1 0.23C258.93 0.26 258.77 0.29 258.6 0.32C258.46 0.35 258.33 0.38 258.19 0.42C258.06 0.46 257.92 0.5 257.79 0.54C257.66 0.58 257.52 0.63 257.39 0.68C257.26 0.72 257.13 0.78 257 0.83C256.78 0.93 256.57 1.06 256.38 1.19C256.18 1.33 256 1.49 255.83 1.66C255.66 1.83 255.5 2.01 255.36 2.21C255.23 2.4 255.1 2.61 255 2.83C254.94 2.97 254.89 3.11 254.83 3.25C254.78 3.39 254.73 3.53 254.68 3.67C254.64 3.81 254.59 3.95 254.55 4.1C254.51 4.24 254.47 4.39 254.43 4.53C254.38 4.7 254.33 4.87 254.29 5.05C254.25 5.22 254.22 5.39 254.18 5.57C254.15 5.74 254.13 5.92 254.11 6.1C254.09 6.27 254.07 6.45 254.06 6.63C254.06 7.39 253.92 8.26 253.92 9.2L253.92 9.2L253.92 30.83C253.92 31.77 254.06 32.65 254.06 33.41C254.07 33.59 254.09 33.77 254.11 33.94C254.13 34.12 254.15 34.3 254.19 34.47C254.22 34.65 254.25 34.82 254.29 34.99C254.33 35.17 254.38 35.34 254.43 35.51C254.47 35.65 254.51 35.8 254.55 35.94C254.59 36.09 254.64 36.23 254.68 36.37C254.73 36.51 254.78 36.65 254.83 36.79C254.89 36.93 254.94 37.07 255 37.21C255.11 37.43 255.23 37.63 255.37 37.83C255.51 38.02 255.66 38.21 255.83 38.38C256 38.55 256.19 38.7 256.38 38.84C256.58 38.98 256.78 39.1 257 39.21C257.13 39.26 257.27 39.32 257.4 39.37C257.54 39.41 257.67 39.46 257.81 39.5C257.95 39.54 258.08 39.58 258.22 39.62C258.36 39.66 258.5 39.69 258.64 39.72C258.8 39.75 258.97 39.78 259.14 39.81C259.3 39.84 259.47 39.86 259.64 39.88C259.8 39.9 259.97 39.92 260.14 39.93C260.3 39.95 260.47 39.96 260.64 39.97L294.64 39.97L294.64 33L261 33L261 23.32Z" />
	<path id="Layer" fill-rule="evenodd" class="shp0" d="M349.45 6.59C349.44 6.41 349.42 6.24 349.4 6.06C349.38 5.88 349.35 5.71 349.32 5.53C349.29 5.35 349.25 5.18 349.21 5.01C349.17 4.83 349.13 4.66 349.08 4.49C349.04 4.35 349 4.2 348.96 4.06C348.91 3.92 348.87 3.77 348.82 3.63C348.77 3.49 348.72 3.35 348.67 3.21C348.61 3.07 348.56 2.93 348.5 2.79C348.4 2.57 348.27 2.36 348.14 2.17C348 1.97 347.84 1.79 347.67 1.62C347.5 1.45 347.32 1.29 347.12 1.15C346.93 1.02 346.72 0.89 346.5 0.79C346.37 0.74 346.24 0.69 346.11 0.65C345.98 0.6 345.84 0.56 345.71 0.52C345.58 0.48 345.44 0.44 345.31 0.41C345.17 0.38 345.04 0.35 344.9 0.32C344.73 0.29 344.57 0.26 344.4 0.23C344.24 0.2 344.07 0.18 343.9 0.16C343.74 0.14 343.57 0.12 343.4 0.1C343.24 0.08 343.07 0.07 342.9 0.06L303.35 0.06L310.86 6.92L342.6 6.92L342.6 16.47L309.6 16.47L309.6 39.82L316.72 39.82L316.72 23.51L342.89 23.51C343.06 23.5 343.23 23.49 343.39 23.47C343.56 23.45 343.73 23.43 343.89 23.41C344.06 23.39 344.23 23.37 344.39 23.34C344.56 23.31 344.72 23.28 344.89 23.25C345.03 23.22 345.17 23.19 345.31 23.15C345.45 23.11 345.58 23.08 345.72 23.03C345.86 22.99 345.99 22.95 346.13 22.9C346.26 22.85 346.4 22.8 346.53 22.75C346.75 22.64 346.95 22.52 347.15 22.38C347.34 22.24 347.53 22.09 347.7 21.92C347.87 21.75 348.02 21.56 348.16 21.37C348.3 21.17 348.42 20.97 348.53 20.75C348.59 20.61 348.64 20.47 348.69 20.33C348.75 20.19 348.8 20.05 348.85 19.9C348.89 19.76 348.94 19.62 348.98 19.47C349.03 19.33 349.07 19.19 349.11 19.04C349.16 18.87 349.2 18.7 349.24 18.52C349.28 18.35 349.32 18.18 349.35 18C349.38 17.82 349.41 17.65 349.43 17.47C349.45 17.29 349.47 17.12 349.48 16.94C349.48 16.18 349.61 15.3 349.61 14.36L349.61 9.17C349.58 8.23 349.45 7.35 349.45 6.59Z" />
	<path id="Layer" fill-rule="evenodd" class="shp0" d="M402.12 9.17L402.12 30.83C402.12 31.77 401.98 32.65 401.98 33.41C401.97 33.59 401.95 33.77 401.93 33.94C401.91 34.12 401.89 34.3 401.85 34.47C401.82 34.65 401.79 34.82 401.75 34.99C401.71 35.17 401.66 35.34 401.61 35.51C401.57 35.65 401.53 35.8 401.49 35.94C401.44 36.09 401.4 36.23 401.35 36.37C401.3 36.51 401.25 36.65 401.2 36.79C401.14 36.93 401.09 37.07 401.03 37.21C400.92 37.43 400.8 37.63 400.66 37.83C400.52 38.02 400.37 38.21 400.2 38.38C400.03 38.55 399.84 38.7 399.65 38.84C399.45 38.98 399.25 39.1 399.03 39.21C398.9 39.26 398.77 39.32 398.63 39.37C398.5 39.41 398.36 39.46 398.23 39.5C398.09 39.54 397.95 39.58 397.82 39.62C397.68 39.66 397.54 39.69 397.4 39.72C397.24 39.75 397.07 39.78 396.9 39.81C396.74 39.83 396.57 39.86 396.4 39.88C396.24 39.9 396.07 39.92 395.9 39.93C395.74 39.95 395.57 39.96 395.4 39.97L364.63 39.97C364.46 39.96 364.29 39.95 364.13 39.93C363.96 39.92 363.79 39.9 363.63 39.88C363.46 39.86 363.29 39.84 363.13 39.81C362.96 39.78 362.79 39.75 362.63 39.72C362.49 39.69 362.35 39.66 362.21 39.62C362.08 39.58 361.94 39.54 361.8 39.5C361.67 39.46 361.53 39.41 361.4 39.37C361.26 39.32 361.13 39.26 361 39.21C360.78 39.11 360.58 38.98 360.38 38.84C360.18 38.71 360 38.55 359.83 38.38C359.66 38.21 359.5 38.03 359.37 37.83C359.23 37.63 359.1 37.43 359 37.21C358.94 37.07 358.89 36.93 358.83 36.79C358.78 36.65 358.73 36.51 358.68 36.37C358.63 36.23 358.59 36.09 358.54 35.94C358.5 35.8 358.46 35.65 358.42 35.51C358.37 35.34 358.32 35.17 358.28 34.99C358.24 34.82 358.21 34.65 358.18 34.47C358.14 34.3 358.12 34.12 358.1 33.94C358.08 33.77 358.06 33.59 358.05 33.41C358.05 32.65 357.91 31.77 357.91 30.83L357.91 9.2C357.91 8.26 358.05 7.39 358.05 6.63C358.06 6.45 358.08 6.27 358.1 6.1C358.12 5.92 358.14 5.74 358.17 5.57C358.21 5.39 358.24 5.22 358.28 5.05C358.32 4.87 358.37 4.7 358.42 4.53C358.46 4.39 358.5 4.24 358.54 4.1C358.59 3.95 358.63 3.81 358.68 3.67C358.73 3.53 358.78 3.39 358.83 3.25C358.89 3.11 358.94 2.97 359 2.83C359.1 2.61 359.22 2.4 359.36 2.21C359.5 2.01 359.66 1.83 359.83 1.66C360 1.49 360.18 1.33 360.38 1.19C360.57 1.05 360.78 0.93 361 0.83C361.13 0.78 361.25 0.72 361.38 0.68C361.51 0.63 361.64 0.58 361.77 0.54C361.9 0.5 362.04 0.46 362.17 0.42C362.3 0.38 362.44 0.35 362.57 0.32C362.74 0.29 362.9 0.26 363.07 0.23C363.23 0.2 363.4 0.18 363.57 0.16C363.73 0.14 363.9 0.12 364.07 0.1C364.23 0.09 364.4 0.07 364.57 0.06L395.3 0.06C395.47 0.07 395.64 0.09 395.8 0.1C395.97 0.12 396.14 0.14 396.3 0.16C396.47 0.18 396.64 0.21 396.8 0.23C396.97 0.26 397.13 0.29 397.3 0.32C397.44 0.35 397.57 0.38 397.7 0.41C397.84 0.44 397.97 0.48 398.11 0.52C398.24 0.56 398.37 0.6 398.5 0.65C398.63 0.69 398.76 0.74 398.89 0.79C399.11 0.89 399.32 1.02 399.51 1.15C399.71 1.29 399.89 1.45 400.06 1.62C400.23 1.79 400.39 1.97 400.53 2.17C400.66 2.36 400.79 2.57 400.89 2.79C400.95 2.93 401 3.07 401.06 3.21C401.11 3.35 401.16 3.49 401.21 3.63C401.26 3.77 401.3 3.91 401.35 4.06C401.39 4.2 401.43 4.35 401.47 4.49C401.52 4.66 401.57 4.83 401.61 5.01C401.65 5.18 401.68 5.35 401.72 5.53C401.75 5.7 401.77 5.88 401.79 6.06C401.81 6.23 401.83 6.41 401.84 6.59C401.84 7.35 402 8.22 402.12 9.17ZM395 7L365 7L365 33L394.94 33L394.94 9.69L395 7Z" />
	<path id="Layer" fill-rule="evenodd" class="shp0" d="M506.59 9.16C506.59 8.22 506.45 7.34 506.45 6.58C506.44 6.4 506.42 6.23 506.4 6.05C506.38 5.87 506.35 5.7 506.32 5.53C506.29 5.35 506.25 5.18 506.21 5C506.17 4.83 506.13 4.66 506.08 4.49C506.04 4.34 506 4.2 505.96 4.05C505.92 3.91 505.87 3.77 505.82 3.62C505.77 3.48 505.72 3.34 505.67 3.2C505.61 3.06 505.56 2.92 505.5 2.78C505.39 2.56 505.27 2.36 505.13 2.16C504.99 1.97 504.84 1.78 504.67 1.61C504.5 1.44 504.31 1.29 504.12 1.15C503.92 1.01 503.72 0.89 503.5 0.78C503.37 0.73 503.24 0.67 503.1 0.62C502.97 0.58 502.83 0.53 502.7 0.49C502.56 0.45 502.42 0.41 502.29 0.37C502.15 0.33 502.01 0.3 501.87 0.27C501.7 0.24 501.54 0.21 501.37 0.18C501.21 0.16 501.04 0.14 500.87 0.11C500.71 0.09 500.54 0.08 500.37 0.06C500.21 0.04 500.04 0.03 499.87 0.02L462.51 0.02L462.51 7L499.51 7L499.51 33L469.7 33L469.7 16.55L462.7 16.55L462.7 33L462.6 33L462.6 39.92L500 39.92C500.17 39.91 500.34 39.89 500.5 39.88C500.67 39.86 500.84 39.84 501 39.82C501.17 39.8 501.34 39.77 501.5 39.75C501.67 39.72 501.83 39.69 502 39.66C502.14 39.63 502.28 39.6 502.41 39.56C502.55 39.52 502.69 39.49 502.83 39.44C502.96 39.4 503.1 39.36 503.23 39.31C503.36 39.26 503.5 39.21 503.63 39.16C503.85 39.05 504.05 38.93 504.25 38.79C504.44 38.65 504.63 38.5 504.8 38.33C504.97 38.16 505.12 37.97 505.26 37.78C505.4 37.58 505.52 37.38 505.63 37.16C505.69 37.02 505.74 36.88 505.8 36.74C505.85 36.6 505.9 36.46 505.95 36.31C506 36.17 506.04 36.03 506.09 35.88C506.13 35.74 506.17 35.6 506.21 35.45C506.26 35.28 506.3 35.11 506.34 34.93C506.38 34.76 506.42 34.59 506.45 34.41C506.48 34.23 506.51 34.06 506.53 33.88C506.55 33.7 506.57 33.53 506.58 33.35C506.58 32.59 506.72 31.72 506.72 30.77L506.72 9.17L506.59 9.16Z" />
</svg>